<svg xmlns="http://www.w3.org/2000/svg" xmlns:xlink="http://www.w3.org/1999/xlink" version="1.1" width="25" height="25" viewBox="0 0 256 256" xml:space="preserve">
<desc>Created with Fabric.js 1.7.22</desc>
<defs>
</defs>
<g transform="translate(128 128) scale(0.72 0.72)" style="">
	<g style="stroke: none; stroke-width: 0; stroke-dasharray: none; stroke-linecap: butt; stroke-linejoin: miter; stroke-miterlimit: 10; fill: white; fill-rule: nonzero; opacity: 1;" transform="translate(-175.05 -175.05000000000004) scale(3.89 3.89)" >
	<path d="M 27.429 72.429 c -2.209 0 -4 -1.791 -4 -4 v -11.8 c 0 -2.209 1.791 -4 4 -4 s 4 1.791 4 4 v 11.8 C 31.429 70.638 29.638 72.429 27.429 72.429 z" style="stroke: none; stroke-width: 1; stroke-dasharray: none; stroke-linecap: butt; stroke-linejoin: miter; stroke-miterlimit: 10; fill:white; fill-rule: nonzero; opacity: 1;" transform=" matrix(1 0 0 1 0 0) " stroke-linecap="round" />
	<path d="M 45 72.429 c -2.209 0 -4 -1.791 -4 -4 V 45 c 0 -2.209 1.791 -4 4 -4 s 4 1.791 4 4 v 23.429 C 49 70.638 47.209 72.429 45 72.429 z" style="stroke: none; stroke-width: 1; stroke-dasharray: none; stroke-linecap: butt; stroke-linejoin: miter; stroke-miterlimit: 10; fill: white; fill-rule: nonzero; opacity: 1;" transform=" matrix(1 0 0 1 0 0) " stroke-linecap="round" />
	<path d="M 62.571 72.429 c -2.209 0 -4 -1.791 -4 -4 V 21.571 c 0 -2.209 1.791 -4 4 -4 s 4 1.791 4 4 v 46.857 C 66.571 70.638 64.78 72.429 62.571 72.429 z" style="stroke: none; stroke-width: 1; stroke-dasharray: none; stroke-linecap: butt; stroke-linejoin: miter; stroke-miterlimit: 10; fill: white; fill-rule: nonzero; opacity: 1;" transform=" matrix(1 0 0 1 0 0) " stroke-linecap="round" />
	<path d="M 77.403 90 H 12.597 C 5.651 90 0 84.35 0 77.403 V 12.597 C 0 5.651 5.651 0 12.597 0 h 64.807 C 84.35 0 90 5.651 90 12.597 v 64.807 C 90 84.35 84.35 90 77.403 90 z M 12.597 8 C 10.062 8 8 10.062 8 12.597 v 64.807 C 8 79.938 10.062 82 12.597 82 h 64.807 C 79.938 82 82 79.938 82 77.403 V 12.597 C 82 10.062 79.938 8 77.403 8 H 12.597 z" style="stroke: none; stroke-width: 1; stroke-dasharray: none; stroke-linecap: butt; stroke-linejoin: miter; stroke-miterlimit: 10; fill: white; fill-rule: nonzero; opacity: 1;" transform=" matrix(1 0 0 1 0 0) " stroke-linecap="round" />
</g>
</g>
</svg>